<?xml version="1.0" standalone="no"?>
<!DOCTYPE svg PUBLIC "-//W3C//DTD SVG 20010904//EN"
 "http://www.w3.org/TR/2001/REC-SVG-20010904/DTD/svg10.dtd">
<svg version="1.0" xmlns="http://www.w3.org/2000/svg"
 width="600.000000pt" height="600.000000pt" viewBox="0 0 600.000000 600.000000"
 preserveAspectRatio="xMidYMid meet">
<g transform="translate(0.000000,600.000000) scale(0.100000,-0.100000)"
fill="#fa7f21" stroke="none">
<path d="M5030 4239 c-53 -56 -34 -138 39 -169 39 -16 76 -6 112 29 40 40 39
104 -3 143 -44 41 -107 40 -148 -3z m110 -1 c0 -4 6 -8 14 -8 8 0 17 -7 20
-16 4 -10 2 -13 -7 -8 -6 4 -3 -2 7 -14 11 -13 14 -22 7 -22 -8 0 -9 -5 -2
-19 12 -21 -10 -48 -29 -36 -5 3 -10 0 -10 -7 0 -18 -51 -21 -81 -6 -17 9 -24
21 -24 40 1 15 -3 24 -7 22 -10 -7 -10 27 0 43 19 30 112 56 112 31z"/>
<path d="M1374 4226 c-15 -38 -1 -51 59 -54 31 -2 57 -6 57 -10 0 -4 20 -92
45 -197 25 -104 54 -229 65 -277 l20 -86 -30 -32 c-52 -56 -43 -136 20 -173
25 -15 71 -17 408 -17 334 0 381 2 393 16 9 11 10 20 2 32 -9 15 -50 18 -388
22 -346 5 -379 6 -389 23 -8 12 -8 22 0 35 10 15 41 17 340 22 364 6 361 5
403 74 22 36 114 422 109 458 l-3 23 -451 3 -451 2 -19 73 -19 72 -83 3 c-65
2 -83 0 -88 -12z m164 -25 c3 -8 0 -11 -6 -7 -6 3 -14 2 -17 -4 -4 -6 -1 -9 5
-8 17 4 40 -63 27 -79 -7 -9 -5 -13 7 -13 11 0 14 -5 10 -12 -4 -7 -3 -8 4 -4
7 4 17 4 24 0 7 -4 46 -6 88 -5 41 2 82 2 90 2 8 -1 148 -1 310 -2 175 -1 303
-5 314 -11 12 -6 16 -7 12 0 -3 5 3 12 14 15 11 3 20 1 20 -5 0 -5 5 -6 10 -3
6 3 10 4 10 1 0 -2 3 -11 6 -20 4 -11 -2 -19 -17 -25 -18 -7 -19 -10 -6 -10 9
-1 17 -6 17 -12 0 -5 -5 -7 -11 -3 -8 4 -9 0 -4 -15 3 -11 3 -26 -2 -33 -4 -7
-8 -17 -8 -23 -1 -32 -30 -163 -35 -160 -4 2 -4 -10 -2 -27 4 -23 1 -29 -8
-23 -9 5 -10 2 -5 -14 4 -12 2 -28 -5 -36 -6 -8 -9 -19 -5 -25 3 -5 3 -10 -2
-10 -4 0 -16 -14 -25 -30 -10 -18 -25 -30 -38 -30 -11 0 -20 -4 -20 -8 0 -4
-141 -8 -312 -9 -172 -1 -320 -3 -328 -5 -21 -5 -40 -24 -40 -42 0 -9 -4 -16
-10 -16 -5 0 -10 -5 -10 -11 0 -5 4 -8 9 -4 5 3 12 -4 16 -15 3 -11 13 -20 21
-20 8 0 12 -4 9 -10 -8 -13 1 -13 28 2 20 10 21 10 8 -6 -15 -18 -16 -18 37 0
9 3 94 5 187 4 94 -1 241 -3 328 -3 101 -1 156 -5 154 -12 -4 -12 -747 -15
-747 -3 0 4 -6 8 -12 8 -27 0 -41 20 -44 61 -2 31 2 46 14 56 9 7 13 13 9 13
-4 0 1 9 12 21 11 12 24 18 30 15 5 -4 3 7 -5 24 -9 16 -13 39 -9 50 4 11 2
20 -4 20 -6 0 -11 11 -11 25 0 14 -7 42 -15 61 -8 20 -12 40 -9 46 3 5 0 15
-6 23 -6 8 -9 19 -5 25 3 5 2 10 -3 10 -6 0 -9 18 -8 40 1 22 0 40 -4 40 -11
0 -52 170 -48 195 5 22 3 23 -10 13 -12 -10 -14 -10 -9 -1 11 17 -38 46 -68
41 -14 -3 -30 0 -35 7 -8 10 5 12 61 11 52 -1 74 -5 77 -15z"/>
<path d="M1605 4030 c-27 -16 -40 -40 -27 -49 4 -3 14 -33 21 -66 7 -33 18
-75 23 -93 5 -18 7 -45 4 -60 -5 -18 -4 -22 3 -13 7 10 10 7 14 -15 13 -64 21
-119 19 -127 -2 -5 2 -6 7 -3 11 7 33 -18 24 -28 -4 -3 116 -4 265 -2 165 3
274 1 277 -4 3 -6 16 -1 27 10 12 11 29 19 37 18 9 -2 15 3 13 11 -2 8 3 11
13 8 8 -4 16 -3 16 1 1 4 3 16 5 27 2 11 8 38 14 60 6 22 13 50 15 62 2 12 6
26 9 31 3 5 8 23 11 42 3 18 13 46 21 62 11 21 12 28 3 22 -9 -5 -10 -2 -5 12
15 40 17 70 4 86 -12 16 -46 18 -401 20 -327 3 -392 1 -412 -12z m800 -32
c-59 -260 -85 -352 -104 -371 -21 -22 -28 -22 -313 -22 l-291 0 -48 200 c-27
110 -49 203 -49 208 0 4 182 7 405 7 l405 0 -5 -22z"/>
<path d="M1631 3704 c0 -11 3 -14 6 -6 3 7 2 16 -1 19 -3 4 -6 -2 -5 -13z"/>
<path d="M2600 3720 l0 -210 145 0 145 0 0 38 0 37 -105 -3 -105 -3 0 55 0 56
90 0 90 0 0 35 0 35 -90 0 -90 0 0 50 0 50 99 0 99 0 4 30 c3 17 2 32 0 35 -3
3 -68 5 -144 5 l-138 0 0 -210z m70 178 c0 6 9 12 20 12 11 0 20 -3 20 -7 0
-5 35 -7 77 -6 l78 1 -85 -8 c-47 -5 -98 -15 -115 -24 -16 -9 -24 -16 -17 -16
8 0 12 -17 12 -50 0 -59 6 -64 91 -64 31 -1 61 -7 68 -13 9 -10 -3 -13 -58
-13 -100 0 -101 -1 -101 -75 0 -74 1 -75 123 -75 99 0 101 -17 2 -22 -41 -2
-75 0 -75 3 0 4 -18 4 -40 2 l-40 -5 0 180 c0 135 3 181 13 185 6 2 15 -1 19
-7 5 -8 8 -7 8 2z"/>
<path d="M2698 3723 c7 -3 16 -2 19 1 4 3 -2 6 -13 5 -11 0 -14 -3 -6 -6z"/>
<path d="M2648 3553 c7 -3 16 -2 19 1 4 3 -2 6 -13 5 -11 0 -14 -3 -6 -6z"/>
<path d="M3800 3720 l0 -210 45 0 45 0 0 143 c0 78 -5 149 -10 157 -8 12 -10
10 -10 -10 l-1 -25 -14 25 c-19 33 -19 21 0 -23 8 -20 15 -44 14 -54 0 -17 -1
-17 -7 0 -4 10 -6 -30 -4 -88 4 -94 3 -105 -12 -99 -13 5 -16 25 -17 113 -1
58 -3 137 -4 176 -4 75 1 85 47 85 30 0 65 -41 52 -61 -4 -8 -3 -9 4 -5 8 4
10 2 6 -7 -3 -8 -1 -18 5 -22 6 -3 8 -18 5 -33 -4 -21 -3 -24 5 -12 9 13 11
13 11 0 0 -9 -6 -22 -12 -29 -11 -11 -10 -13 5 -8 12 5 17 1 17 -11 0 -10 5
-23 12 -30 9 -9 9 -12 0 -12 -6 0 -9 -7 -6 -15 4 -8 10 -12 15 -9 5 3 9 -2 9
-10 0 -23 22 -31 36 -12 9 13 13 14 18 4 3 -7 3 -3 0 10 -3 12 -1 22 5 22 6 0
10 13 9 29 -1 15 6 40 15 54 9 15 18 42 19 60 2 21 8 33 14 30 8 -3 10 5 6 23
-3 17 -1 25 6 21 5 -4 13 0 16 8 4 10 15 14 33 12 l28 -4 3 -181 c2 -119 -1
-182 -8 -182 -5 0 -10 18 -10 41 0 24 -4 38 -10 34 -6 -4 -10 34 -11 107 -1
72 -4 104 -9 88 -4 -14 -8 -87 -9 -162 l-1 -138 45 0 45 0 0 210 0 210 -62 0
-63 0 -43 -138 c-24 -75 -43 -144 -43 -151 2 -36 -19 14 -60 146 l-44 143 -62
0 -62 0 -1 -210z"/>
<path d="M4843 3858 l-9 -43 -51 -1 c-57 -1 -76 -12 -100 -58 -9 -17 -20 -34
-26 -37 -6 -4 -9 -44 -8 -93 2 -69 -1 -86 -12 -86 -30 0 -39 206 -10 235 15
16 17 16 25 0 6 -9 7 -23 4 -31 -3 -9 -1 -12 4 -9 6 3 10 22 10 41 0 33 -1 34
-40 34 l-40 0 0 -150 0 -150 45 0 45 0 0 100 c0 95 1 100 25 116 14 9 36 14
50 12 14 -3 25 -1 25 3 0 5 11 9 25 9 25 0 25 0 25 -99 0 -96 1 -100 27 -121
20 -16 38 -20 72 -18 42 3 46 6 49 31 3 25 1 27 -32 27 l-36 0 0 90 0 90 35 0
c32 0 35 2 35 30 0 28 -3 30 -35 30 -35 0 -35 0 -35 45 0 43 -1 45 -29 45 -27
0 -31 -4 -38 -42z m42 -25 c-1 -15 -7 -39 -14 -52 -10 -17 -10 -26 -1 -35 8
-8 10 -7 5 4 -3 9 1 24 9 35 11 15 17 17 28 7 8 -6 18 -9 21 -5 4 3 7 1 7 -6
0 -8 -7 -10 -19 -6 -14 4 -20 -1 -26 -22 -9 -30 -9 -39 -4 -119 1 -27 -1 -57
-6 -65 -4 -7 -5 -11 0 -7 9 9 35 -9 35 -24 0 -7 -4 -7 -12 -1 -7 6 -21 9 -30
8 -9 -2 -19 4 -22 12 -4 9 -2 12 7 7 8 -5 7 -2 -2 9 -11 14 -11 17 0 17 10 0
11 3 3 8 -7 4 -14 35 -15 69 -2 33 -1 59 4 56 15 -9 6 14 -13 35 -18 19 -18
22 -4 37 9 8 20 12 26 9 7 -4 8 -2 4 4 -8 13 3 64 13 58 4 -3 6 -17 6 -33z
m-99 -58 c-15 -12 -36 -21 -46 -20 -22 1 -40 15 -21 15 7 0 9 5 5 13 -5 8 -2
7 9 -2 10 -8 20 -11 24 -7 3 3 1 6 -6 6 -7 0 -10 3 -8 8 3 4 20 7 37 7 l32 1
-26 -21z m159 -235 c3 -5 1 -10 -4 -10 -6 0 -11 5 -11 10 0 6 2 10 4 10 3 0 8
-4 11 -10z"/>
<path d="M4860 3699 c0 -5 5 -7 10 -4 6 3 10 8 10 11 0 2 -4 4 -10 4 -5 0 -10
-5 -10 -11z"/>
<path d="M3205 3831 c-3 -5 -2 -12 3 -15 5 -3 9 1 9 9 0 17 -3 19 -12 6z"/>
<path d="M3897 3815 c3 -16 25 -91 48 -165 l41 -135 34 0 34 0 41 135 c53 170
59 193 45 185 -5 -3 -10 -16 -11 -28 0 -21 -1 -21 -10 -2 -8 17 -8 15 -4 -7 3
-16 2 -28 -2 -28 -5 0 -9 -12 -10 -26 0 -15 -7 -30 -13 -34 -7 -5 -10 -15 -7
-24 4 -9 2 -16 -2 -16 -5 0 -12 -22 -16 -49 -8 -60 -29 -94 -45 -71 -8 13 -10
12 -10 -5 -1 -17 -3 -15 -16 8 -9 16 -13 31 -11 34 3 3 -1 23 -9 45 -7 22 -12
44 -9 48 3 5 -2 16 -11 25 -9 9 -18 26 -20 38 -2 12 -5 31 -8 42 -2 11 -5 26
-5 33 -1 7 -5 11 -10 8 -5 -4 -12 0 -15 6 -3 7 -2 0 1 -17z"/>
<path d="M2997 3808 c-35 -9 -77 -54 -77 -80 0 -16 63 -7 87 12 43 33 93 21
93 -22 0 -14 -8 -18 -32 -18 -120 -1 -183 -63 -147 -143 14 -30 48 -47 96 -47
48 0 98 51 101 104 2 21 -2 44 -8 51 -8 9 -6 17 5 29 15 14 15 18 -2 46 -9 16
-24 30 -33 31 -8 0 -4 5 9 10 17 7 30 6 45 -4 18 -12 20 -25 21 -125 2 -112
-4 -130 -31 -94 -12 15 -13 14 -14 -15 0 -31 2 -33 35 -33 l35 0 0 125 c0 123
-1 126 -26 150 -15 14 -35 25 -44 25 -10 0 -30 2 -46 4 -16 3 -46 0 -67 -6z
m48 -17 c3 -5 2 -12 -3 -15 -5 -3 -9 1 -9 9 0 17 3 19 12 6z m-43 -18 c-6 -2
-10 -8 -7 -13 3 -4 -2 -10 -10 -14 -8 -3 -17 0 -21 6 -8 12 14 28 36 27 10 0
11 -2 2 -6z m-8 -124 c-3 -5 -10 -7 -15 -3 -5 3 -7 10 -3 15 3 5 10 7 15 3 5
-3 7 -10 3 -15z m108 -28 c2 -22 1 -39 -2 -38 -3 0 -17 -6 -32 -13 -41 -19
-80 0 -76 37 3 31 37 53 79 53 24 0 27 -4 31 -39z m-130 -8 c-3 -26 3 -38 24
-56 23 -20 24 -25 11 -30 -12 -4 -14 -2 -10 11 6 15 5 15 -10 3 -11 -9 -17
-10 -17 -2 0 6 5 11 12 11 6 0 8 3 5 6 -4 4 -13 1 -21 -5 -11 -9 -16 -9 -22 0
-5 8 -3 10 7 5 8 -4 5 0 -5 8 -18 14 -15 20 6 17 4 0 5 6 2 14 -4 8 -10 12
-15 9 -7 -4 -7 12 0 44 1 2 9 2 19 0 13 -2 16 -11 14 -35z"/>
<path d="M3300 3810 c-69 -16 -104 -96 -61 -139 18 -18 42 -27 124 -45 31 -7
46 -31 29 -48 -5 -5 -27 -10 -48 -11 -28 -1 -41 4 -52 21 -10 15 -24 22 -48
22 -38 0 -38 1 -24 -34 34 -89 225 -87 245 3 13 60 -27 101 -117 117 -46 8
-66 28 -48 49 21 25 90 17 90 -11 0 -10 12 -14 39 -14 l40 0 -11 31 c-18 51
-84 76 -158 59z m114 -51 c-4 -6 -13 -3 -25 9 -10 11 -26 19 -36 17 -61 -12
-73 -16 -71 -23 0 -4 -2 -15 -6 -24 -6 -12 0 -25 21 -42 30 -27 30 -27 81 -30
26 -1 38 -9 54 -34 20 -32 20 -33 2 -48 -11 -9 -13 -13 -6 -9 18 9 15 -3 -7
-26 -13 -15 -21 -17 -26 -9 -4 7 -3 15 3 19 12 7 17 31 14 63 -1 11 -7 15 -17
12 -10 -4 -15 0 -15 12 0 15 -2 16 -9 5 -6 -9 -10 -10 -16 -2 -3 7 -15 9 -26
6 -11 -4 -19 -2 -19 4 0 6 -11 11 -25 11 -29 0 -44 28 -37 66 6 32 22 43 73
53 47 8 105 -11 93 -30z m-134 -184 c0 -7 -30 -13 -34 -7 -3 4 4 9 15 9 10 1
19 0 19 -2z m31 -30 c34 -16 34 -16 4 -10 -16 4 -34 11 -39 16 -14 13 -3 11
35 -6z"/>
<path d="M4381 3810 c-45 -7 -91 -45 -91 -76 0 -22 62 -18 83 6 29 35 97 17
97 -26 0 -8 5 -14 10 -14 6 0 9 14 8 30 -1 17 -5 30 -8 30 -3 0 -15 7 -26 15
-18 14 -18 15 6 12 30 -3 65 -31 55 -46 -3 -6 -3 -11 2 -11 8 0 5 -181 -3
-189 -2 -2 -13 4 -24 14 -14 13 -17 22 -10 29 12 12 14 69 3 80 -5 4 -8 13 -8
19 0 16 -65 20 -114 7 -54 -14 -81 -44 -81 -91 0 -55 26 -81 87 -86 45 -5 55
-2 77 20 14 15 27 22 27 17 1 -6 2 -16 3 -22 0 -7 18 -14 39 -16 l37 -3 0 110
c0 60 -4 121 -10 135 -18 47 -78 68 -159 56z m25 -19 c-3 -4 -19 -14 -36 -21
-16 -7 -28 -16 -25 -19 2 -4 -2 -8 -9 -8 -25 0 -5 25 32 41 45 18 44 18 38 7z
m-52 -142 c-10 -12 -18 -29 -16 -39 2 -13 -26 -52 -29 -39 -7 40 -6 58 3 53 7
-5 9 -1 5 9 -5 13 18 30 52 36 2 1 -4 -8 -15 -20z m116 -19 c0 -18 -8 -37 -19
-47 -11 -9 -18 -20 -15 -24 2 -4 -10 -4 -28 2 -86 24 -58 94 40 98 18 1 22 -4
22 -29z m-106 -77 c4 -9 4 -18 1 -21 -3 -3 -5 0 -5 7 0 7 -4 10 -9 7 -5 -4
-16 -3 -25 0 -12 5 -14 10 -6 20 14 15 36 9 44 -13z"/>
<path d="M3479 3788 c5 -13 31 -78 59 -145 46 -111 49 -123 36 -142 -11 -14
-26 -21 -50 -21 -31 0 -34 -2 -34 -30 0 -28 2 -30 40 -30 52 0 93 21 109 57 8
15 42 97 76 181 l63 152 -42 0 -41 0 -35 -99 -34 -100 -33 87 c-18 48 -33 93
-33 100 0 8 -16 12 -45 12 -42 0 -44 -1 -36 -22z m58 -11 c11 4 14 2 9 -5 -4
-7 0 -22 8 -34 12 -16 13 -25 4 -35 -6 -7 -8 -16 -4 -20 3 -3 6 -1 6 5 0 23
15 12 16 -12 1 -14 16 -40 34 -58 18 -18 29 -27 26 -20 -4 6 -3 12 3 12 5 0
13 9 16 20 4 11 10 18 14 15 5 -2 7 6 6 19 -2 14 2 35 9 48 7 13 10 30 8 37
-3 8 0 11 7 7 6 -4 11 -1 11 7 0 8 7 18 16 21 12 5 15 2 9 -11 -4 -10 -9 -28
-10 -40 -2 -12 -10 -32 -19 -45 -9 -12 -16 -31 -16 -41 0 -9 -7 -20 -16 -24
-10 -4 -14 -13 -10 -28 4 -15 -4 -35 -25 -63 -17 -23 -28 -46 -25 -51 9 -14
-17 -30 -60 -35 l-39 -5 30 13 c17 8 39 24 49 35 16 18 17 25 8 47 -15 31 -15
37 -2 29 17 -10 11 0 -15 31 -14 16 -23 35 -20 43 3 8 -1 21 -8 30 -15 17 -48
100 -46 116 0 6 3 5 5 -2 3 -7 12 -9 21 -6z"/>
<path d="M3699 3713 c-13 -16 -12 -17 4 -4 9 7 17 15 17 17 0 8 -8 3 -21 -13z"/>
<path d="M3135 3749 c-4 -6 -5 -12 -2 -15 2 -3 7 2 10 11 7 17 1 20 -8 4z"/>
<path d="M4029 3603 c-13 -16 -12 -17 4 -4 9 7 17 15 17 17 0 8 -8 3 -21 -13z"/>
<path d="M1605 3341 c-3 -5 -2 -12 3 -15 5 -3 9 1 9 9 0 17 -3 19 -12 6z"/>
<path d="M1695 3331 c-35 -15 -57 -49 -62 -95 -5 -42 -3 -48 30 -81 30 -30 42
-35 80 -35 36 0 51 6 76 29 30 28 36 47 31 100 -6 68 -86 110 -155 82z m85
-21 c40 -21 63 -117 32 -128 -7 -2 -10 -7 -7 -12 3 -4 -2 -13 -10 -20 -10 -9
-15 -9 -15 -1 0 6 5 11 12 11 6 0 8 3 4 7 -4 5 -13 1 -19 -7 -15 -19 -73 -28
-61 -9 5 9 2 11 -9 6 -11 -4 -23 4 -39 25 -12 18 -17 33 -11 35 5 2 8 14 6 27
-4 17 2 28 18 40 13 9 19 16 14 16 -6 0 -3 5 5 10 20 13 56 13 80 0z"/>
<path d="M1728 3303 c7 -3 16 -2 19 1 4 3 -2 6 -13 5 -11 0 -14 -3 -6 -6z"/>
<path d="M1780 3291 c0 -6 4 -13 10 -16 6 -3 7 1 4 9 -7 18 -14 21 -14 7z"/>
<path d="M1705 3277 c-25 -32 -23 -73 6 -98 26 -23 33 -23 49 -5 6 8 17 13 25
10 7 -3 16 -1 20 5 4 7 -1 8 -12 4 -15 -5 -16 -4 -7 8 17 21 29 63 16 55 -6
-3 -17 2 -24 11 -16 22 -59 28 -73 10z m56 -17 c34 -19 18 -70 -23 -70 -15 0
-38 27 -38 44 0 6 30 36 36 36 3 0 14 -5 25 -10z"/>
<path d="M2134 3321 c-63 -38 -70 -128 -13 -175 60 -51 158 -24 178 49 28 102
-76 181 -165 126z m110 -22 c-3 -5 2 -9 11 -9 18 0 34 -36 27 -62 -2 -10 -9
-18 -15 -18 -8 0 -8 -3 0 -11 18 -18 -24 -51 -72 -55 -33 -3 -46 0 -60 16 -32
35 -38 106 -12 125 9 7 14 14 11 17 -3 3 22 6 55 6 34 0 58 -4 55 -9z"/>
<path d="M2130 3278 c-12 -8 -12 -9 3 -4 21 7 22 -4 2 -30 -8 -10 -14 -26 -15
-34 0 -13 1 -13 10 0 8 12 10 10 10 -8 0 -13 -4 -20 -10 -17 -16 10 -12 -1 6
-15 8 -8 14 -9 12 -4 -2 5 2 10 7 11 6 0 9 -3 7 -9 -3 -12 34 -1 66 18 25 16
31 67 10 88 -17 15 -68 19 -68 5 0 -8 -4 -8 -13 -1 -9 8 -17 8 -27 0z m81 -18
c21 -12 25 -40 7 -58 -18 -18 -46 -14 -58 9 -9 16 -8 25 6 40 20 22 20 22 45
9z"/>
<path d="M2260 3239 c0 -5 5 -7 10 -4 6 3 10 8 10 11 0 2 -4 4 -10 4 -5 0 -10
-5 -10 -11z"/>
</g>
</svg>
